<svg width="154" height="32" viewBox="0 0 154 32" fill="none" xmlns="http://www.w3.org/2000/svg">
<path d="M0 30.9219L14.5111 0H14.6392L29.1503 30.9219H23.2605L14.6392 13.0492H14.5111L5.88981 30.9219H0ZM48.4694 18.6909L56.3651 31.0941H49.7498L42.4088 18.6909H38.7811V31.0941H32.8912V13.7383H46.4634C47.6585 13.7383 48.5688 13.7239 49.1949 13.6952C49.8492 13.6378 50.3186 13.4799 50.6034 13.2215C50.8878 12.9631 51.0442 12.5611 51.0728 12.0156C51.1296 11.4701 51.1582 10.6805 51.1582 9.64694C51.1582 8.41237 51.1296 7.4649 51.0728 6.80454C51.0442 6.11547 50.8735 5.62737 50.5607 5.34027C50.276 5.02444 49.8065 4.83783 49.1523 4.7804C48.5261 4.72297 47.6298 4.69427 46.4634 4.69427H33.0193V0.172267H47.1036C49.4083 0.172267 51.1866 0.22969 52.4386 0.344533C53.719 0.430669 54.6436 0.760846 55.2128 1.33507C55.7817 1.9093 56.1091 2.79934 56.1944 4.0052C56.3081 5.21107 56.3651 6.91937 56.3651 9.13014C56.3651 10.7092 56.3508 12.0443 56.3225 13.1353C56.2938 14.2264 56.2085 15.1308 56.0664 15.8485C55.924 16.5376 55.6963 17.0831 55.3835 17.4851C55.0704 17.8583 54.6153 18.1454 54.0177 18.3464C53.4486 18.5187 52.7087 18.6192 51.7984 18.6479C50.8878 18.6766 49.7781 18.6909 48.4694 18.6909ZM69.2421 11.5101H76.8436L75.4419 14.4477H68.6221C67.7415 14.4477 66.9958 14.4659 66.3848 14.5021C65.7738 14.5203 65.2616 14.5928 64.8483 14.7197C64.453 14.8467 64.1385 15.0461 63.9049 15.3181C63.6892 15.5901 63.5275 15.98 63.4197 16.4877C63.3118 16.9955 63.24 17.6392 63.204 18.4189C63.186 19.1805 63.1771 20.1235 63.1771 21.2477C63.1771 22.372 63.186 23.324 63.204 24.1037C63.24 24.8653 63.3118 25.5 63.4197 26.0077C63.5275 26.4973 63.6892 26.8781 63.9049 27.1501C64.1385 27.4221 64.4619 27.6216 64.8753 27.7485C65.2886 27.8755 65.8008 27.9571 66.4117 27.9933C67.0407 28.0115 67.8045 28.0296 68.703 28.0477H68.9995C70.2215 28.0477 71.1469 27.9571 71.7759 27.7757C72.4049 27.5944 72.8541 27.3043 73.1237 26.9053C73.3933 26.4883 73.537 25.9533 73.555 25.3005C73.5909 24.6296 73.6089 23.8227 73.6089 22.8797H69.1073L70.1047 20.4317H76.6549C76.6549 22.1725 76.6369 23.6504 76.601 24.8653C76.583 26.0621 76.4932 27.0595 76.3314 27.8573C76.1877 28.6371 75.9451 29.2445 75.6036 29.6797C75.2802 30.0968 74.8129 30.4141 74.2019 30.6317C73.5909 30.8312 72.8092 30.9491 71.8568 30.9853C70.9044 31.0216 69.7363 31.0397 68.3525 31.0397C66.9149 31.0397 65.7019 31.0216 64.7135 30.9853C63.7252 30.9491 62.9075 30.8403 62.2606 30.6589C61.6316 30.4776 61.1464 30.1875 60.805 29.7885C60.4635 29.3896 60.2119 28.8275 60.0502 28.1021C59.8885 27.3768 59.7896 26.4611 59.7537 25.3549C59.7357 24.2307 59.7267 22.8616 59.7267 21.2477C59.7267 19.652 59.7357 18.3101 59.7537 17.2221C59.7896 16.116 59.8795 15.2003 60.0232 14.4749C60.185 13.7496 60.4366 13.1875 60.778 12.7885C61.1194 12.3896 61.6046 12.0995 62.2336 11.9181C62.8626 11.7187 63.6623 11.6008 64.6327 11.5645C65.6031 11.5283 66.7981 11.5101 68.2178 11.5101H69.2421ZM90.3922 23.2605L95.379 31.0941H91.2008L86.5645 23.2605H84.2732V31.0941H80.5534V20.1325H89.1253C89.88 20.1325 90.4551 20.1235 90.8504 20.1053C91.2637 20.0691 91.5602 19.9693 91.74 19.8061C91.9197 19.6429 92.0185 19.3891 92.0365 19.0445C92.0724 18.7 92.0904 18.2013 92.0904 17.5485C92.0904 16.7688 92.0724 16.1704 92.0365 15.7533C92.0185 15.3181 91.9107 15.0099 91.713 14.8285C91.5333 14.6291 91.2368 14.5112 90.8235 14.4749C90.4281 14.4387 89.862 14.4205 89.1253 14.4205H80.6342V11.5645H89.5296C90.9852 11.5645 92.1083 11.6008 92.899 11.6733C93.7077 11.7277 94.2918 11.9363 94.6512 12.2989C95.0106 12.6616 95.2172 13.2237 95.2711 13.9853C95.343 14.7469 95.379 15.8259 95.379 17.2221C95.379 18.2195 95.37 19.0627 95.352 19.7517C95.3341 20.4408 95.2801 21.012 95.1903 21.4653C95.1004 21.9005 94.9567 22.2451 94.759 22.4989C94.5613 22.7347 94.2738 22.916 93.8964 23.0429C93.537 23.1517 93.0698 23.2152 92.4947 23.2333C91.9197 23.2515 91.2188 23.2605 90.3922 23.2605ZM107.126 11.5101C108.527 11.5101 109.705 11.5283 110.657 11.5645C111.609 11.6008 112.4 11.7096 113.029 11.8909C113.658 12.0723 114.143 12.3624 114.485 12.7613C114.826 13.1421 115.078 13.6952 115.239 14.4205C115.401 15.1277 115.491 16.0344 115.509 17.1405C115.545 18.2467 115.563 19.5976 115.563 21.1933C115.563 22.8435 115.545 24.2307 115.509 25.3549C115.473 26.4792 115.374 27.4131 115.212 28.1565C115.051 28.8819 114.799 29.444 114.458 29.8429C114.116 30.2237 113.631 30.5139 113.002 30.7133C112.373 30.8947 111.582 31.0035 110.63 31.0397C109.678 31.0579 108.509 31.0669 107.126 31.0669C105.742 31.0669 104.565 31.0579 103.595 31.0397C102.642 31.0035 101.851 30.8947 101.222 30.7133C100.611 30.5139 100.135 30.2237 99.7938 29.8429C99.4703 29.444 99.2277 28.8819 99.066 28.1565C98.9222 27.4131 98.8324 26.4792 98.7964 25.3549C98.7785 24.2307 98.7695 22.8435 98.7695 21.1933C98.7695 19.5976 98.7785 18.2467 98.7964 17.1405C98.8324 16.0344 98.9222 15.1277 99.066 14.4205C99.2277 13.6952 99.4703 13.1421 99.7938 12.7613C100.135 12.3624 100.611 12.0723 101.222 11.8909C101.851 11.7096 102.642 11.6008 103.595 11.5645C104.565 11.5283 105.742 11.5101 107.126 11.5101ZM107.072 27.8301H107.314C108.105 27.8301 108.77 27.8211 109.309 27.8029C109.848 27.7667 110.289 27.6851 110.63 27.5581C110.971 27.4312 111.232 27.2317 111.412 26.9597C111.609 26.6877 111.744 26.3069 111.816 25.8173C111.906 25.3096 111.951 24.6749 111.951 23.9133C111.969 23.1336 111.978 22.1816 111.978 21.0573C111.978 19.9512 111.969 19.0264 111.951 18.2829C111.951 17.5395 111.906 16.9229 111.816 16.4333C111.726 15.9437 111.591 15.572 111.412 15.3181C111.232 15.0461 110.962 14.8467 110.603 14.7197C110.244 14.5928 109.785 14.5203 109.228 14.5021C108.689 14.484 108.015 14.4749 107.207 14.4749C106.38 14.4749 105.688 14.484 105.131 14.5021C104.574 14.5203 104.107 14.5928 103.729 14.7197C103.37 14.8467 103.091 15.0461 102.894 15.3181C102.696 15.5901 102.552 15.98 102.462 16.4877C102.373 16.9773 102.319 17.6029 102.301 18.3645C102.283 19.1261 102.274 20.0691 102.274 21.1933C102.274 22.8435 102.292 24.1219 102.328 25.0285C102.382 25.9171 102.552 26.5699 102.84 26.9869C103.127 27.404 103.577 27.6488 104.188 27.7213C104.817 27.7939 105.706 27.8301 106.856 27.8301H107.072ZM135.803 11.5101V23.3965C135.803 24.6659 135.786 25.7357 135.75 26.6061C135.732 27.4765 135.651 28.2019 135.507 28.7821C135.363 29.3443 135.13 29.7885 134.806 30.1149C134.483 30.4232 134.015 30.6499 133.404 30.7949C132.793 30.94 132.021 31.0307 131.086 31.0669C130.152 31.0851 129.002 31.0941 127.636 31.0941C126.306 31.0941 125.183 31.0851 124.266 31.0669C123.35 31.0307 122.586 30.94 121.975 30.7949C121.382 30.6499 120.915 30.4232 120.574 30.1149C120.25 29.7885 120.007 29.3443 119.846 28.7821C119.702 28.2019 119.612 27.4765 119.576 26.6061C119.558 25.7357 119.549 24.6659 119.549 23.3965V11.5101H123.269V23.4781C123.269 24.5117 123.287 25.3096 123.323 25.8717C123.377 26.4339 123.539 26.8419 123.808 27.0957C124.078 27.3496 124.509 27.5037 125.102 27.5581C125.695 27.5944 126.54 27.6125 127.636 27.6125C128.75 27.6125 129.604 27.5944 130.197 27.5581C130.808 27.5037 131.248 27.3496 131.518 27.0957C131.805 26.8419 131.967 26.4339 132.003 25.8717C132.057 25.3096 132.084 24.5117 132.084 23.4781V11.5101H135.803ZM153.711 17.8205C153.711 18.8541 153.702 19.7245 153.684 20.4317C153.666 21.1389 153.594 21.7283 153.468 22.1997C153.36 22.6531 153.172 23.0067 152.902 23.2605C152.65 23.4963 152.273 23.6776 151.77 23.8045C151.285 23.9133 150.656 23.9768 149.883 23.9949C149.11 24.0131 148.167 24.0221 147.053 24.0221H142.47V31.0941H138.885V21.0845H146.514C147.43 21.0845 148.14 21.0664 148.643 21.0301C149.146 20.9939 149.515 20.8669 149.748 20.6493C149.982 20.4317 150.117 20.0872 150.153 19.6157C150.189 19.1261 150.207 18.4371 150.207 17.5485C150.207 16.7507 150.189 16.1432 150.153 15.7261C150.117 15.2909 149.982 14.9736 149.748 14.7741C149.515 14.5747 149.146 14.4568 148.643 14.4205C148.14 14.3843 147.43 14.3661 146.514 14.3661H138.885V11.5645H147.053H147.376C148.436 11.5645 149.326 11.5736 150.045 11.5917C150.764 11.6099 151.357 11.6824 151.824 11.8093C152.291 11.9363 152.65 12.1267 152.902 12.3805C153.172 12.6163 153.36 12.9699 153.468 13.4413C153.594 13.9128 153.666 14.5021 153.684 15.2093C153.702 15.9165 153.711 16.7869 153.711 17.8205Z" fill="#F4F4F4"/>
</svg>
