<svg width="155" height="32" viewBox="0 0 155 32" fill="none" xmlns="http://www.w3.org/2000/svg">
<path d="M0.963379 30.9777L15.4745 0.0558472H15.6026L30.1137 30.9777H24.2239L15.6026 13.1051H15.4745L6.85319 30.9777H0.963379ZM49.4328 18.7468L57.3285 31.15H50.7132L43.3722 18.7468H39.7444V31.15H33.8546V13.7941H47.4268C48.6218 13.7941 49.5322 13.7798 50.1583 13.751C50.8125 13.6936 51.282 13.5357 51.5667 13.2773C51.8512 13.0189 52.0076 12.617 52.0362 12.0715C52.0929 11.5259 52.1216 10.7364 52.1216 9.70278C52.1216 8.46822 52.0929 7.52075 52.0362 6.86038C52.0076 6.17132 51.8369 5.68322 51.5241 5.39612C51.2393 5.08029 50.7699 4.89368 50.1156 4.83625C49.4895 4.77882 48.5932 4.75012 47.4268 4.75012H33.9827V0.228114H48.067C50.3717 0.228114 52.1499 0.285537 53.402 0.40038C54.6824 0.486517 55.607 0.816694 56.1762 1.39092C56.745 1.96515 57.0724 2.85518 57.1578 4.06105C57.2715 5.26692 57.3285 6.97522 57.3285 9.18598C57.3285 10.7651 57.3142 12.1002 57.2858 13.1912C57.2572 14.2822 57.1718 15.1866 57.0298 15.9044C56.8874 16.5935 56.6597 17.139 56.3469 17.5409C56.0338 17.9142 55.5786 18.2013 54.9811 18.4023C54.412 18.5745 53.6721 18.675 52.7618 18.7037C51.8512 18.7324 50.7415 18.7468 49.4328 18.7468ZM70.2055 11.566H77.807L76.4053 14.5036H69.5855C68.7049 14.5036 67.9592 14.5217 67.3482 14.558C66.7372 14.5761 66.225 14.6486 65.8117 14.7756C65.4163 14.9025 65.1019 15.102 64.8682 15.374C64.6526 15.646 64.4909 16.0358 64.383 16.5436C64.2752 17.0513 64.2033 17.695 64.1674 18.4748C64.1494 19.2364 64.1404 20.1793 64.1404 21.3036C64.1404 22.4278 64.1494 23.3799 64.1674 24.1596C64.2033 24.9212 64.2752 25.5559 64.383 26.0636C64.4909 26.5532 64.6526 26.934 64.8682 27.206C65.1019 27.478 65.4253 27.6775 65.8386 27.8044C66.252 27.9313 66.7641 28.0129 67.3751 28.0492C68.0041 28.0673 68.7678 28.0855 69.6664 28.1036H69.9629C71.1849 28.1036 72.1103 28.0129 72.7393 27.8316C73.3683 27.6502 73.8175 27.3601 74.0871 26.9612C74.3566 26.5441 74.5004 26.0092 74.5184 25.3564C74.5543 24.6855 74.5723 23.8785 74.5723 22.9356H70.0707L71.068 20.4876H77.6183C77.6183 22.2284 77.6003 23.7062 77.5644 24.9212C77.5464 26.118 77.4565 27.1153 77.2948 27.9132C77.151 28.6929 76.9084 29.3004 76.567 29.7356C76.2435 30.1527 75.7763 30.47 75.1653 30.6876C74.5543 30.887 73.7726 31.0049 72.8202 31.0412C71.8677 31.0775 70.6996 31.0956 69.3159 31.0956C67.8783 31.0956 66.6653 31.0775 65.6769 31.0412C64.6885 31.0049 63.8709 30.8961 63.2239 30.7148C62.595 30.5334 62.1098 30.2433 61.7683 29.8444C61.4269 29.4454 61.1753 28.8833 61.0136 28.158C60.8518 27.4327 60.753 26.5169 60.7171 25.4108C60.6991 24.2865 60.6901 22.9174 60.6901 21.3036C60.6901 19.7078 60.6991 18.366 60.7171 17.278C60.753 16.1719 60.8429 15.2561 60.9866 14.5308C61.1484 13.8055 61.3999 13.2433 61.7414 12.8444C62.0828 12.4454 62.568 12.1553 63.197 11.974C63.826 11.7745 64.6256 11.6566 65.596 11.6204C66.5665 11.5841 67.7615 11.566 69.1811 11.566H70.2055ZM91.3556 23.3164L96.3423 31.15H92.1642L87.5278 23.3164H85.2366V31.15H81.5167V20.1884H90.0886C90.8434 20.1884 91.4184 20.1793 91.8138 20.1612C92.2271 20.1249 92.5236 20.0252 92.7033 19.862C92.883 19.6988 92.9819 19.4449 92.9998 19.1004C93.0358 18.7559 93.0538 18.2572 93.0538 17.6044C93.0538 16.8247 93.0358 16.2262 92.9998 15.8092C92.9819 15.374 92.8741 15.0657 92.6764 14.8844C92.4967 14.6849 92.2002 14.5671 91.7868 14.5308C91.3915 14.4945 90.8254 14.4764 90.0886 14.4764H81.5976V11.6204H90.493C91.9486 11.6204 93.0717 11.6567 93.8624 11.7292C94.6711 11.7836 95.2551 11.9921 95.6145 12.3548C95.974 12.7175 96.1806 13.2796 96.2345 14.0412C96.3064 14.8028 96.3423 15.8817 96.3423 17.278C96.3423 18.2753 96.3334 19.1185 96.3154 19.8076C96.2974 20.4967 96.2435 21.0678 96.1537 21.5212C96.0638 21.9564 95.92 22.3009 95.7224 22.5548C95.5247 22.7905 95.2372 22.9719 94.8598 23.0988C94.5004 23.2076 94.0332 23.271 93.4581 23.2892C92.883 23.3073 92.1822 23.3164 91.3556 23.3164ZM108.089 11.566C109.491 11.566 110.668 11.5841 111.62 11.6204C112.573 11.6566 113.363 11.7654 113.992 11.9468C114.621 12.1281 115.107 12.4183 115.448 12.8172C115.789 13.198 116.041 13.751 116.203 14.4764C116.365 15.1836 116.454 16.0902 116.472 17.1964C116.508 18.3025 116.526 19.6535 116.526 21.2492C116.526 22.8993 116.508 24.2865 116.472 25.4108C116.436 26.5351 116.338 27.4689 116.176 28.2124C116.014 28.9377 115.763 29.4998 115.421 29.8988C115.08 30.2796 114.594 30.5697 113.965 30.7692C113.336 30.9505 112.546 31.0593 111.593 31.0956C110.641 31.1137 109.473 31.1228 108.089 31.1228C106.705 31.1228 105.528 31.1137 104.558 31.0956C103.605 31.0593 102.815 30.9505 102.186 30.7692C101.575 30.5697 101.099 30.2796 100.757 29.8988C100.434 29.4998 100.191 28.9377 100.029 28.2124C99.8856 27.4689 99.7958 26.5351 99.7598 25.4108C99.7419 24.2865 99.7329 22.8993 99.7329 21.2492C99.7329 19.6535 99.7419 18.3025 99.7598 17.1964C99.7958 16.0902 99.8856 15.1836 100.029 14.4764C100.191 13.751 100.434 13.198 100.757 12.8172C101.099 12.4183 101.575 12.1281 102.186 11.9468C102.815 11.7654 103.605 11.6566 104.558 11.6204C105.528 11.5841 106.705 11.566 108.089 11.566ZM108.035 27.886H108.278C109.069 27.886 109.733 27.8769 110.273 27.8588C110.812 27.8225 111.252 27.7409 111.593 27.614C111.935 27.487 112.195 27.2876 112.375 27.0156C112.573 26.7436 112.708 26.3628 112.779 25.8732C112.869 25.3655 112.914 24.7308 112.914 23.9692C112.932 23.1894 112.941 22.2374 112.941 21.1132C112.941 20.007 112.932 19.0822 112.914 18.3388C112.914 17.5953 112.869 16.9788 112.779 16.4892C112.69 15.9996 112.555 15.6279 112.375 15.374C112.195 15.102 111.926 14.9025 111.566 14.7756C111.207 14.6486 110.749 14.5761 110.192 14.558C109.653 14.5399 108.979 14.5308 108.17 14.5308C107.343 14.5308 106.651 14.5399 106.094 14.558C105.537 14.5761 105.07 14.6486 104.693 14.7756C104.333 14.9025 104.055 15.102 103.857 15.374C103.659 15.646 103.516 16.0358 103.426 16.5436C103.336 17.0332 103.282 17.6588 103.264 18.4204C103.246 19.182 103.237 20.1249 103.237 21.2492C103.237 22.8993 103.255 24.1777 103.291 25.0844C103.345 25.9729 103.516 26.6257 103.803 27.0428C104.091 27.4599 104.54 27.7047 105.151 27.7772C105.78 27.8497 106.669 27.886 107.82 27.886H108.035ZM136.767 11.566V23.4524C136.767 24.7217 136.749 25.7916 136.713 26.662C136.695 27.5324 136.614 28.2577 136.47 28.838C136.327 29.4001 136.093 29.8444 135.77 30.1708C135.446 30.479 134.979 30.7057 134.368 30.8508C133.757 30.9959 132.984 31.0865 132.05 31.1228C131.115 31.1409 129.965 31.15 128.599 31.15C127.269 31.15 126.146 31.1409 125.23 31.1228C124.313 31.0865 123.55 30.9959 122.939 30.8508C122.346 30.7057 121.878 30.479 121.537 30.1708C121.213 29.8444 120.971 29.4001 120.809 28.838C120.665 28.2577 120.575 27.5324 120.54 26.662C120.522 25.7916 120.513 24.7217 120.513 23.4524V11.566H124.232V23.534C124.232 24.5676 124.25 25.3655 124.286 25.9276C124.34 26.4897 124.502 26.8977 124.772 27.1516C125.041 27.4054 125.472 27.5596 126.065 27.614C126.658 27.6502 127.503 27.6684 128.599 27.6684C129.713 27.6684 130.567 27.6502 131.16 27.614C131.771 27.5596 132.211 27.4054 132.481 27.1516C132.768 26.8977 132.93 26.4897 132.966 25.9276C133.02 25.3655 133.047 24.5676 133.047 23.534V11.566H136.767ZM154.674 17.8764C154.674 18.91 154.665 19.7804 154.647 20.4876C154.629 21.1948 154.557 21.7841 154.432 22.2556C154.324 22.7089 154.135 23.0625 153.865 23.3164C153.614 23.5521 153.236 23.7335 152.733 23.8604C152.248 23.9692 151.619 24.0326 150.846 24.0508C150.074 24.0689 149.13 24.078 148.016 24.078H143.434V31.15H139.849V21.1404H147.477C148.393 21.1404 149.103 21.1223 149.606 21.086C150.11 21.0497 150.478 20.9228 150.712 20.7052C150.945 20.4876 151.08 20.143 151.116 19.6716C151.152 19.182 151.17 18.4929 151.17 17.6044C151.17 16.8065 151.152 16.1991 151.116 15.782C151.08 15.3468 150.945 15.0295 150.712 14.83C150.478 14.6305 150.11 14.5126 149.606 14.4764C149.103 14.4401 148.393 14.422 147.477 14.422H139.849V11.6204H148.016H148.34C149.4 11.6204 150.289 11.6294 151.008 11.6476C151.727 11.6657 152.32 11.7383 152.787 11.8652C153.254 11.9921 153.614 12.1825 153.865 12.4364C154.135 12.6721 154.324 13.0257 154.432 13.4972C154.557 13.9686 154.629 14.558 154.647 15.2652C154.665 15.9724 154.674 16.8428 154.674 17.8764Z" fill="#F4F4F4"/>
</svg>
